<svg xmlns="http://www.w3.org/2000/svg" width="24.59" height="28.65" viewBox="0 0 24.59 28.65">
  <metadata><?xpacket begin="﻿" id="W5M0MpCehiHzreSzNTczkc9d"?>
<x:xmpmeta xmlns:x="adobe:ns:meta/" x:xmptk="Adobe XMP Core 5.6-c138 79.159824, 2016/09/14-01:09:01        ">
   <rdf:RDF xmlns:rdf="http://www.w3.org/1999/02/22-rdf-syntax-ns#">
      <rdf:Description rdf:about=""/>
   </rdf:RDF>
</x:xmpmeta>
                                                                                                    
                                                                                                    
                                                                                                    
                                                                                                    
                                                                                                    
                                                                                                    
                                                                                                    
                                                                                                    
                                                                                                    
                                                                                                    
                                                                                                    
                                                                                                    
                                                                                                    
                                                                                                    
                                                                                                    
                                                                                                    
                                                                                                    
                                                                                                    
                                                                                                    
                                                                                                    
                           
<?xpacket end="w"?></metadata>
<defs>
    <style>
      .cls-1 {
        fill: #fff;
        fill-rule: evenodd;
      }
    </style>
  </defs>
  <path id="Icon" class="cls-1" d="M1369.92,7144.45l-1.91,1.91-1.57-1.57a9.764,9.764,0,0,0-7.25-16.31,9.678,9.678,0,0,0-6.52,2.54l-1.57-1.57,1.91-1.91a0.507,0.507,0,0,0,0-.72,0.5,0.5,0,0,0-.73,0l-2.27,2.27a12.976,12.976,0,0,0,8.79,22.15c-0.19.97-.85,3.07-3.11,3.07h-0.64a0.512,0.512,0,0,0-.51.51,0.521,0.521,0,0,0,.51.52h8.28a0.521,0.521,0,0,0,.51-0.52,0.512,0.512,0,0,0-.51-0.51h-4.98a5.572,5.572,0,0,0,1.49-3.09,12.836,12.836,0,0,0,8.53-3.77l2.28-2.27a0.516,0.516,0,0,0-.73-0.73m-4.54-12.37a8.752,8.752,0,1,1-6.19-2.57,8.752,8.752,0,0,1,6.19,2.57m-18.15,6.19a11.878,11.878,0,0,1,3.18-8.06l1.53,1.54a9.748,9.748,0,0,0,13.77,13.77l1.53,1.53a11.927,11.927,0,0,1-20.01-8.78" transform="translate(-1346.22 -7126.69)"/>
</svg>
