<svg xmlns="http://www.w3.org/2000/svg" width="24.59" height="28.65"><path id="Icon" d="M1369.92 7144.45l-1.91 1.91-1.57-1.57a9.764 9.764 0 00-7.25-16.31 9.678 9.678 0 00-6.52 2.54l-1.57-1.57 1.91-1.91a.507.507 0 000-.72.5.5 0 00-.73 0l-2.27 2.27a12.976 12.976 0 008.79 22.15c-.19.97-.85 3.07-3.11 3.07h-.64a.512.512 0 00-.51.51.521.521 0 00.51.52h8.28a.521.521 0 00.51-.52.512.512 0 00-.51-.51h-4.98a5.572 5.572 0 001.49-3.09 12.836 12.836 0 008.53-3.77l2.28-2.27a.516.516 0 00-.73-.73m-4.54-12.37a8.752 8.752 0 11-6.19-2.57 8.752 8.752 0 016.19 2.57m-18.15 6.19a11.878 11.878 0 013.18-8.06l1.53 1.54a9.748 9.748 0 0013.77 13.77l1.53 1.53a11.927 11.927 0 01-20.01-8.78" transform="translate(-1346.22 -7126.69)" fill="#fff" fill-rule="evenodd"/></svg>