<svg xmlns="http://www.w3.org/2000/svg" width="15.594" height="9.09"><path id="Arrow" d="M966.246 7581.38v-.01l-6.469-6.49a1.216 1.216 0 00-.562-.33 1.239 1.239 0 00-.337-.07c-.013 0-.025-.01-.039-.01h-.031c-.014 0-.024.01-.038.01a1.263 1.263 0 00-.337.07 1.194 1.194 0 00-.56.33l-6.469 6.49v.01a1.257 1.257 0 00-.368.89 1.294 1.294 0 001.291 1.3 1.246 1.246 0 00.726-.26l.033.03.143-.15c.006 0 .012-.01.018-.01l5.574-5.59 5.574 5.59c.007 0 .013.01.02.01l.14.15.035-.03a1.244 1.244 0 00.727.26 1.294 1.294 0 001.291-1.3 1.262 1.262 0 00-.362-.89z" transform="translate(-951.031 -7574.47)" fill="#fff" fill-rule="evenodd"/></svg>