<svg xmlns="http://www.w3.org/2000/svg" width="15.594" height="9.09" viewBox="0 0 15.594 9.09">
  <metadata><?xpacket begin="﻿" id="W5M0MpCehiHzreSzNTczkc9d"?>
<x:xmpmeta xmlns:x="adobe:ns:meta/" x:xmptk="Adobe XMP Core 5.6-c138 79.159824, 2016/09/14-01:09:01        ">
   <rdf:RDF xmlns:rdf="http://www.w3.org/1999/02/22-rdf-syntax-ns#">
      <rdf:Description rdf:about=""/>
   </rdf:RDF>
</x:xmpmeta>
                                                                                                    
                                                                                                    
                                                                                                    
                                                                                                    
                                                                                                    
                                                                                                    
                                                                                                    
                                                                                                    
                                                                                                    
                                                                                                    
                                                                                                    
                                                                                                    
                                                                                                    
                                                                                                    
                                                                                                    
                                                                                                    
                                                                                                    
                                                                                                    
                                                                                                    
                                                                                                    
                           
<?xpacket end="w"?></metadata>
<defs>
    <style>
      .cls-1 {
        fill: #fff;
        fill-rule: evenodd;
      }
    </style>
  </defs>
  <path id="Arrow" class="cls-1" d="M966.246,7581.38l0-.01-6.469-6.49h0a1.216,1.216,0,0,0-.562-0.33,1.239,1.239,0,0,0-.337-0.07c-0.013,0-.025-0.01-0.039-0.01h-0.031c-0.014,0-.024.01-0.038,0.01a1.263,1.263,0,0,0-.337.07,1.194,1.194,0,0,0-.56.33h0l-6.469,6.49,0,0.01a1.257,1.257,0,0,0-.368.89,1.294,1.294,0,0,0,1.291,1.3,1.246,1.246,0,0,0,.726-0.26l0.033,0.03,0.143-.15c0.006,0,.012-0.01.018-0.01l5.574-5.59,5.574,5.59c0.007,0,.013.01,0.02,0.01l0.14,0.15,0.035-.03a1.244,1.244,0,0,0,.727.26,1.294,1.294,0,0,0,1.291-1.3A1.262,1.262,0,0,0,966.246,7581.38Z" transform="translate(-951.031 -7574.47)"/>
</svg>
