<svg xmlns="http://www.w3.org/2000/svg" width="17.562" height="17.56"><path id="Dribble" d="M958.115 7479.16a8.8 8.8 0 00-2.393-4.44 8.8 8.8 0 00-2.791-1.88 7.978 7.978 0 00-1.65-.51 8.778 8.778 0 00-3.537 0 8.007 8.007 0 00-1.649.51 8.872 8.872 0 00-2.793 1.88 8.978 8.978 0 00-1.07 1.3 8.748 8.748 0 00-1.322 3.14 8.93 8.93 0 00-.178 1.77 8.831 8.831 0 00.178 1.76 8.39 8.39 0 00.513 1.65 8.525 8.525 0 00.809 1.5 9.552 9.552 0 001.07 1.3 9.872 9.872 0 001.3 1.07 9.266 9.266 0 001.492.81 9.452 9.452 0 001.649.51 8.778 8.778 0 003.537 0 9.41 9.41 0 001.65-.51 9.233 9.233 0 001.493-.81 9.844 9.844 0 001.3-1.07 9.2 9.2 0 001.071-1.3 8.464 8.464 0 00.81-1.5 8.321 8.321 0 00.512-1.65 8.685 8.685 0 00.178-1.76 8.783 8.783 0 00-.179-1.77zm-1.106 1.69a17.361 17.361 0 00-5.222-.24l-.162-.39c-.157-.37-.325-.73-.5-1.09a9.655 9.655 0 004.177-2.97 7.477 7.477 0 011.707 4.69zm-2.543-5.55a8.173 8.173 0 01-3.918 2.71 38.373 38.373 0 00-2.8-4.37 7.363 7.363 0 011.767-.21 7.487 7.487 0 014.951 1.87zm-6.75-1.65zm-1.4.5a44.335 44.335 0 012.783 4.32 28.116 28.116 0 01-6.924.91 7.494 7.494 0 014.139-5.23zm-4.3 6.78c0-.08 0-.16.006-.24a27.451 27.451 0 007.7-1.07c.215.42.422.85.61 1.28a1.68 1.68 0 00-.3.09 11.821 11.821 0 00-6.1 4.94v.01a7.489 7.489 0 01-1.919-5.01zm7.5 7.5a7.49 7.49 0 01-4.777-1.72c.1.08.168.13.168.13a10.156 10.156 0 015.885-4.69c.017 0 .033-.01.049-.01a30.991 30.991 0 011.6 5.69 7.5 7.5 0 01-2.928.6zm4.19-1.28a32.272 32.272 0 00-1.459-5.36 10.823 10.823 0 014.674.33 7.508 7.508 0 01-3.221 5.03z" transform="translate(-940.719 -7472.16)" fill="#fff" fill-rule="evenodd"/></svg>