<svg xmlns="http://www.w3.org/2000/svg" width="17.562" height="17.56" viewBox="0 0 17.562 17.56">
  <metadata><?xpacket begin="﻿" id="W5M0MpCehiHzreSzNTczkc9d"?>
<x:xmpmeta xmlns:x="adobe:ns:meta/" x:xmptk="Adobe XMP Core 5.6-c138 79.159824, 2016/09/14-01:09:01        ">
   <rdf:RDF xmlns:rdf="http://www.w3.org/1999/02/22-rdf-syntax-ns#">
      <rdf:Description rdf:about=""/>
   </rdf:RDF>
</x:xmpmeta>
                                                                                                    
                                                                                                    
                                                                                                    
                                                                                                    
                                                                                                    
                                                                                                    
                                                                                                    
                                                                                                    
                                                                                                    
                                                                                                    
                                                                                                    
                                                                                                    
                                                                                                    
                                                                                                    
                                                                                                    
                                                                                                    
                                                                                                    
                                                                                                    
                                                                                                    
                                                                                                    
                           
<?xpacket end="w"?></metadata>
<defs>
    <style>
      .cls-1 {
        fill: #fff;
        fill-rule: evenodd;
      }
    </style>
  </defs>
  <path id="Dribble" class="cls-1" d="M958.115,7479.16a8.8,8.8,0,0,0-2.393-4.44,8.8,8.8,0,0,0-2.791-1.88,7.978,7.978,0,0,0-1.65-.51,8.778,8.778,0,0,0-3.537,0,8.007,8.007,0,0,0-1.649.51,8.872,8.872,0,0,0-2.793,1.88,8.978,8.978,0,0,0-1.07,1.3,8.748,8.748,0,0,0-1.322,3.14,8.93,8.93,0,0,0-.178,1.77,8.831,8.831,0,0,0,.178,1.76,8.39,8.39,0,0,0,.513,1.65,8.525,8.525,0,0,0,.809,1.5,9.552,9.552,0,0,0,1.07,1.3,9.872,9.872,0,0,0,1.3,1.07,9.266,9.266,0,0,0,1.492.81,9.452,9.452,0,0,0,1.649.51,8.778,8.778,0,0,0,3.537,0,9.41,9.41,0,0,0,1.65-.51,9.233,9.233,0,0,0,1.493-.81,9.844,9.844,0,0,0,1.3-1.07,9.2,9.2,0,0,0,1.071-1.3,8.464,8.464,0,0,0,.81-1.5,8.321,8.321,0,0,0,.512-1.65,8.685,8.685,0,0,0,.178-1.76A8.783,8.783,0,0,0,958.115,7479.16Zm-1.106,1.69a17.361,17.361,0,0,0-5.222-.24c-0.053-.13-0.108-0.26-0.162-0.39-0.157-.37-0.325-0.73-0.5-1.09a9.655,9.655,0,0,0,4.177-2.97A7.477,7.477,0,0,1,957.009,7480.85Zm-2.543-5.55a8.173,8.173,0,0,1-3.918,2.71,38.373,38.373,0,0,0-2.8-4.37,7.363,7.363,0,0,1,1.767-.21A7.487,7.487,0,0,1,954.466,7475.3Zm-6.75-1.65h0Zm-1.4.5a44.335,44.335,0,0,1,2.783,4.32,28.116,28.116,0,0,1-6.924.91A7.494,7.494,0,0,1,946.314,7474.15Zm-4.3,6.78c0-.08,0-0.16.006-0.24a27.451,27.451,0,0,0,7.7-1.07c0.215,0.42.422,0.85,0.61,1.28a1.68,1.68,0,0,0-.3.09,11.821,11.821,0,0,0-6.1,4.94l0,0.01A7.489,7.489,0,0,1,942.013,7480.93Zm7.5,7.5a7.49,7.49,0,0,1-4.777-1.72c0.1,0.08.168,0.13,0.168,0.13a10.156,10.156,0,0,1,5.885-4.69c0.017,0,.033-0.01.049-0.01a30.991,30.991,0,0,1,1.6,5.69A7.5,7.5,0,0,1,949.513,7488.43Zm4.19-1.28a32.272,32.272,0,0,0-1.459-5.36,10.823,10.823,0,0,1,4.674.33A7.508,7.508,0,0,1,953.7,7487.15Z" transform="translate(-940.719 -7472.16)"/>
</svg>
