<svg xmlns="http://www.w3.org/2000/svg" width="17.688" height="15.88" viewBox="0 0 17.688 15.88">
  <metadata><?xpacket begin="﻿" id="W5M0MpCehiHzreSzNTczkc9d"?>
<x:xmpmeta xmlns:x="adobe:ns:meta/" x:xmptk="Adobe XMP Core 5.6-c138 79.159824, 2016/09/14-01:09:01        ">
   <rdf:RDF xmlns:rdf="http://www.w3.org/1999/02/22-rdf-syntax-ns#">
      <rdf:Description rdf:about=""/>
   </rdf:RDF>
</x:xmpmeta>
                                                                                                    
                                                                                                    
                                                                                                    
                                                                                                    
                                                                                                    
                                                                                                    
                                                                                                    
                                                                                                    
                                                                                                    
                                                                                                    
                                                                                                    
                                                                                                    
                                                                                                    
                                                                                                    
                                                                                                    
                                                                                                    
                                                                                                    
                                                                                                    
                                                                                                    
                                                                                                    
                           
<?xpacket end="w"?></metadata>
<defs>
    <style>
      .cls-1 {
        fill: #fff;
        fill-rule: evenodd;
      }
    </style>
  </defs>
  <path id="Google_Plus" data-name="Google Plus" class="cls-1" d="M640.479,5009.5H637.81v-2.66a0.366,0.366,0,0,0-.369-0.37h-0.759a0.366,0.366,0,0,0-.37.37v2.66h-2.668a0.376,0.376,0,0,0-.37.38v0.76a0.365,0.365,0,0,0,.37.36h2.668v2.67a0.366,0.366,0,0,0,.37.37h0.759a0.366,0.366,0,0,0,.369-0.37V5011h2.669a0.364,0.364,0,0,0,.369-0.36v-0.76A0.374,0.374,0,0,0,640.479,5009.5Zm-8.967,2.34a3.124,3.124,0,0,1-1.08-1.15c0-.33.028-0.49,0.759-1.06a3.489,3.489,0,0,0,1.467-2.74,3.645,3.645,0,0,0-.77-2.34h0.377a0.4,0.4,0,0,0,.215-0.07l1.051-.76a0.371,0.371,0,0,0-.217-0.67h-4.693a4.669,4.669,0,0,0-1.548.27,4.036,4.036,0,0,0-2.907,3.54,3.772,3.772,0,0,0,3.838,3.78,1.95,1.95,0,0,0-.065.5,1.86,1.86,0,0,0,.253.93h-0.06a5.125,5.125,0,0,0-4.7,2.56,2.738,2.738,0,0,0-.281,1.19,2.248,2.248,0,0,0,.293,1.11,4.2,4.2,0,0,0,2.727,1.76,8.833,8.833,0,0,0,2.154.26,7.006,7.006,0,0,0,1.919-.26,3.825,3.825,0,0,0,3.063-3.49A3.645,3.645,0,0,0,631.512,5011.84Zm-5.928,3.48c0-1.11,1.4-2.08,3-2.08l0.042,0.01a3.386,3.386,0,0,1,1.009.15c0.11,0.08.215,0.15,0.317,0.22a2.759,2.759,0,0,1,1.364,1.37,1.659,1.659,0,0,1,.049.4c0,1.37-1.026,2.07-3.048,2.07C626.783,5017.46,625.584,5016.52,625.584,5015.32Zm1.453-10.43a1.215,1.215,0,0,1,.945-0.44h0.041a2.787,2.787,0,0,1,2.213,2.58,2.524,2.524,0,0,1-.462,1.96,1.242,1.242,0,0,1-.955.43H628.8c-1.017-.02-2.031-1.23-2.213-2.62A2.416,2.416,0,0,1,627.037,5004.89Z" transform="translate(-623.156 -5003.06)"/>
</svg>
