<svg xmlns="http://www.w3.org/2000/svg" width="17.688" height="15.88"><path id="Google_Plus" data-name="Google Plus" d="M640.479 5009.5h-2.669v-2.66a.366.366 0 00-.369-.37h-.759a.366.366 0 00-.37.37v2.66h-2.668a.376.376 0 00-.37.38v.76a.365.365 0 00.37.36h2.668v2.67a.366.366 0 00.37.37h.759a.366.366 0 00.369-.37V5011h2.669a.364.364 0 00.369-.36v-.76a.374.374 0 00-.369-.38zm-8.967 2.34a3.124 3.124 0 01-1.08-1.15c0-.33.028-.49.759-1.06a3.489 3.489 0 001.467-2.74 3.645 3.645 0 00-.77-2.34h.377a.4.4 0 00.215-.07l1.051-.76a.371.371 0 00-.217-.67h-4.693a4.669 4.669 0 00-1.548.27 4.036 4.036 0 00-2.907 3.54 3.772 3.772 0 003.838 3.78 1.95 1.95 0 00-.065.5 1.86 1.86 0 00.253.93h-.06a5.125 5.125 0 00-4.7 2.56 2.738 2.738 0 00-.281 1.19 2.248 2.248 0 00.293 1.11 4.2 4.2 0 002.727 1.76 8.833 8.833 0 002.154.26 7.006 7.006 0 001.919-.26 3.825 3.825 0 003.063-3.49 3.645 3.645 0 00-1.795-3.36zm-5.928 3.48c0-1.11 1.4-2.08 3-2.08l.042.01a3.386 3.386 0 011.009.15c.11.08.215.15.317.22a2.759 2.759 0 011.364 1.37 1.659 1.659 0 01.049.4c0 1.37-1.026 2.07-3.048 2.07-1.534 0-2.733-.94-2.733-2.14zm1.453-10.43a1.215 1.215 0 01.945-.44h.041a2.787 2.787 0 012.213 2.58 2.524 2.524 0 01-.462 1.96 1.242 1.242 0 01-.955.43h-.019c-1.017-.02-2.031-1.23-2.213-2.62a2.416 2.416 0 01.45-1.91z" transform="translate(-623.156 -5003.06)" fill="#fff" fill-rule="evenodd"/></svg>