<svg xmlns="http://www.w3.org/2000/svg" width="26" height="26.18" viewBox="0 0 26 26.18">
  <metadata><?xpacket begin="﻿" id="W5M0MpCehiHzreSzNTczkc9d"?>
<x:xmpmeta xmlns:x="adobe:ns:meta/" x:xmptk="Adobe XMP Core 5.6-c138 79.159824, 2016/09/14-01:09:01        ">
   <rdf:RDF xmlns:rdf="http://www.w3.org/1999/02/22-rdf-syntax-ns#">
      <rdf:Description rdf:about=""/>
   </rdf:RDF>
</x:xmpmeta>
                                                                                                    
                                                                                                    
                                                                                                    
                                                                                                    
                                                                                                    
                                                                                                    
                                                                                                    
                                                                                                    
                                                                                                    
                                                                                                    
                                                                                                    
                                                                                                    
                                                                                                    
                                                                                                    
                                                                                                    
                                                                                                    
                                                                                                    
                                                                                                    
                                                                                                    
                                                                                                    
                           
<?xpacket end="w"?></metadata>
<defs>
    <style>
      .cls-1 {
        fill: #fff;
        fill-rule: evenodd;
      }
    </style>
  </defs>
  <path id="Icon" class="cls-1" d="M972.51,7136.94a0.478,0.478,0,0,0-.16-0.33,0.191,0.191,0,0,0-.022-0.03l-2.955-2.3v-6.9a0.468,0.468,0,0,0-.467-0.47H950.094a0.468,0.468,0,0,0-.467.47v6.9l-2.957,2.3a0.174,0.174,0,0,0-.02.03,0.466,0.466,0,0,0-.16.33v15.68a0.406,0.406,0,0,0,.024.08c0,0.03-.006.05,0,0.07a0.123,0.123,0,0,0,.031.04,0.473,0.473,0,0,0,.092.13,0.794,0.794,0,0,0,.085.07c0.01,0.01.017,0.02,0.028,0.03a0.414,0.414,0,0,0,.186.04c0.009,0,.012.01,0.021,0.01h25.086a0.5,0.5,0,0,0,.205-0.05,0.2,0.2,0,0,0,.033-0.03,0.3,0.3,0,0,0,.076-0.07,0.517,0.517,0,0,0,.1-0.13,0.09,0.09,0,0,0,.029-0.04c0.006-.02,0-0.04,0-0.06,0-.04.024-0.06,0.024-0.09v-15.68Zm-25.088.96,2.385,1.84,6.5,5.04-8.886,6.89V7137.9Zm20.334,10.81-5.061-3.93,8.5-6.59,0.381-.29v13.77Zm3.527-11.77-1.91,1.48v-2.95Zm-20.723-9.1h17.879v11.15l-8.937,6.93-8.942-6.93v-11.15Zm-0.933,7.63v2.95l-0.559-.43-1.35-1.05Zm-1.307,16.68,8.748-6.78,2.148,1.66a0.443,0.443,0,0,0,.573,0l2.144-1.66,8.745,6.78H948.32Z" transform="translate(-946.5 -7126.91)"/>
</svg>
