<svg xmlns="http://www.w3.org/2000/svg" width="26" height="26.18"><path id="Icon" d="M972.51 7136.94a.478.478 0 00-.16-.33.191.191 0 00-.022-.03l-2.955-2.3v-6.9a.468.468 0 00-.467-.47h-18.812a.468.468 0 00-.467.47v6.9l-2.957 2.3a.174.174 0 00-.02.03.466.466 0 00-.16.33v15.68a.406.406 0 00.024.08c0 .03-.006.05 0 .07a.123.123 0 00.031.04.473.473 0 00.092.13.794.794 0 00.085.07c.01.01.017.02.028.03a.414.414 0 00.186.04c.009 0 .012.01.021.01h25.086a.5.5 0 00.205-.05.2.2 0 00.033-.03.3.3 0 00.076-.07.517.517 0 00.1-.13.09.09 0 00.029-.04c.006-.02 0-.04 0-.06 0-.04.024-.06.024-.09v-15.68zm-25.088.96l2.385 1.84 6.5 5.04-8.886 6.89v-13.77zm20.334 10.81l-5.061-3.93 8.5-6.59.381-.29v13.77zm3.527-11.77l-1.91 1.48v-2.95zm-20.723-9.1h17.879v11.15l-8.937 6.93-8.942-6.93v-11.15zm-.933 7.63v2.95l-.559-.43-1.35-1.05zm-1.307 16.68l8.748-6.78 2.148 1.66a.443.443 0 00.573 0l2.144-1.66 8.745 6.78H948.32z" transform="translate(-946.5 -7126.91)" fill="#fff" fill-rule="evenodd"/></svg>