<svg xmlns="http://www.w3.org/2000/svg" width="28.376" height="29.38"><path id="Icon" d="M555.24 7141.23a2.24 2.24 0 112.238-2.24 2.24 2.24 0 01-2.238 2.24m0-3.45a1.215 1.215 0 101.211 1.21 1.214 1.214 0 00-1.211-1.21m5.259 3.45a2.24 2.24 0 112.243-2.24 2.241 2.241 0 01-2.243 2.24m0-3.45a1.215 1.215 0 101.213 1.21 1.212 1.212 0 00-1.213-1.21m5.258 3.45a2.24 2.24 0 112.243-2.24 2.241 2.241 0 01-2.243 2.24m0-3.45a1.215 1.215 0 101.214 1.21 1.211 1.211 0 00-1.214-1.21m4.052 17.92l-4.839-4.84a15.421 15.421 0 01-4.471.66c-7.818 0-14.177-5.66-14.177-12.61s6.359-12.61 14.177-12.61 14.179 5.66 14.179 12.61a12.033 12.033 0 01-4.869 9.5v7.29zm-4.552-6.01l3.523 3.53v-5.32l.208-.16a11.053 11.053 0 004.663-8.83c0-6.39-5.9-11.58-13.152-11.58s-13.15 5.19-13.15 11.58 5.9 11.58 13.15 11.58a14.716 14.716 0 004.459-.7z" transform="translate(-546.312 -7126.31)" fill="#fff" fill-rule="evenodd"/></svg>