<svg xmlns="http://www.w3.org/2000/svg" width="19.782" height="22.22" viewBox="0 0 19.782 22.22">
  <metadata><?xpacket begin="﻿" id="W5M0MpCehiHzreSzNTczkc9d"?>
<x:xmpmeta xmlns:x="adobe:ns:meta/" x:xmptk="Adobe XMP Core 5.6-c138 79.159824, 2016/09/14-01:09:01        ">
   <rdf:RDF xmlns:rdf="http://www.w3.org/1999/02/22-rdf-syntax-ns#">
      <rdf:Description rdf:about=""/>
   </rdf:RDF>
</x:xmpmeta>
                                                                                                    
                                                                                                    
                                                                                                    
                                                                                                    
                                                                                                    
                                                                                                    
                                                                                                    
                                                                                                    
                                                                                                    
                                                                                                    
                                                                                                    
                                                                                                    
                                                                                                    
                                                                                                    
                                                                                                    
                                                                                                    
                                                                                                    
                                                                                                    
                                                                                                    
                                                                                                    
                           
<?xpacket end="w"?></metadata>
<defs>
    <style>
      .cls-1 {
        fill: #fff;
        fill-rule: evenodd;
      }
    </style>
  </defs>
  <path id="Icon" class="cls-1" d="M970,2075.62l-15.444-8.92a2.023,2.023,0,0,0-3.168,1.83v17.84a1.972,1.972,0,0,0,1.908,2.19,2.518,2.518,0,0,0,1.256-.36l15.452-8.92a2,2,0,0,0,0-3.66h0Zm-0.915,2.07-15.444,8.92a0.765,0.765,0,0,1-.345.12l0,0.01a0.6,0.6,0,0,1-.079-0.37v-17.84a0.474,0.474,0,0,1,.086-0.36,0.8,0.8,0,0,1,.346.12l15.439,8.92a0.8,0.8,0,0,1,.288.23,0.661,0.661,0,0,1-.288.25h0Z" transform="translate(-951.406 -2066.34)"/>
</svg>
