<svg xmlns="http://www.w3.org/2000/svg" width="17.469" height="14.25"><path id="Twitter" d="M573.514 5005.92a7.434 7.434 0 01-2.06.56 3.605 3.605 0 001.578-1.98 7.22 7.22 0 01-2.279.87 3.588 3.588 0 00-6.211 2.45 3.68 3.68 0 00.092.82 10.2 10.2 0 01-7.4-3.75 3.591 3.591 0 001.11 4.79 3.584 3.584 0 01-1.626-.45v.05a3.592 3.592 0 002.881 3.52 3.7 3.7 0 01-.947.13 3.749 3.749 0 01-.675-.07 3.586 3.586 0 003.353 2.49 7.164 7.164 0 01-4.458 1.54 8.067 8.067 0 01-.857-.05 10.214 10.214 0 0015.718-8.6c0-.16 0-.31-.011-.46a7.347 7.347 0 001.792-1.86z" transform="translate(-556.031 -5004.22)" fill="#fff" fill-rule="evenodd"/></svg>