<svg xmlns="http://www.w3.org/2000/svg" width="17.469" height="14.25" viewBox="0 0 17.469 14.25">
  <metadata><?xpacket begin="﻿" id="W5M0MpCehiHzreSzNTczkc9d"?>
<x:xmpmeta xmlns:x="adobe:ns:meta/" x:xmptk="Adobe XMP Core 5.6-c138 79.159824, 2016/09/14-01:09:01        ">
   <rdf:RDF xmlns:rdf="http://www.w3.org/1999/02/22-rdf-syntax-ns#">
      <rdf:Description rdf:about=""/>
   </rdf:RDF>
</x:xmpmeta>
                                                                                                    
                                                                                                    
                                                                                                    
                                                                                                    
                                                                                                    
                                                                                                    
                                                                                                    
                                                                                                    
                                                                                                    
                                                                                                    
                                                                                                    
                                                                                                    
                                                                                                    
                                                                                                    
                                                                                                    
                                                                                                    
                                                                                                    
                                                                                                    
                                                                                                    
                                                                                                    
                           
<?xpacket end="w"?></metadata>
<defs>
    <style>
      .cls-1 {
        fill: #fff;
        fill-rule: evenodd;
      }
    </style>
  </defs>
  <path id="Twitter" class="cls-1" d="M573.514,5005.92a7.434,7.434,0,0,1-2.06.56,3.605,3.605,0,0,0,1.578-1.98,7.22,7.22,0,0,1-2.279.87,3.588,3.588,0,0,0-6.211,2.45,3.68,3.68,0,0,0,.092.82,10.2,10.2,0,0,1-7.4-3.75,3.591,3.591,0,0,0,1.11,4.79,3.584,3.584,0,0,1-1.626-.45v0.05a3.592,3.592,0,0,0,2.881,3.52,3.7,3.7,0,0,1-.947.13,3.749,3.749,0,0,1-.675-0.07,3.586,3.586,0,0,0,3.353,2.49,7.164,7.164,0,0,1-4.458,1.54,8.067,8.067,0,0,1-.857-0.05,10.214,10.214,0,0,0,15.718-8.6c0-.16,0-0.31-0.011-0.46A7.347,7.347,0,0,0,573.514,5005.92Z" transform="translate(-556.031 -5004.22)"/>
</svg>
