<svg xmlns="http://www.w3.org/2000/svg"><symbol id="play" viewBox="0 0 19.782 22.22"><path d="M970 2075.62l-15.444-8.92a2.023 2.023 0 00-3.168 1.83v17.84a1.972 1.972 0 001.908 2.19 2.518 2.518 0 001.256-.36l15.452-8.92a2 2 0 000-3.66zm-.915 2.07l-15.444 8.92a.765.765 0 01-.345.12v.01a.6.6 0 01-.079-.37v-17.84a.474.474 0 01.086-.36.8.8 0 01.346.12l15.439 8.92a.8.8 0 01.288.23.661.661 0 01-.288.25z" transform="translate(-951.406 -2066.34)"/></symbol><symbol id="facebook" viewBox="0 0 7.969 17.19"><path d="M500.992 5007.57h-2.716v-1.78a.729.729 0 01.756-.83h1.916v-2.93l-2.64-.01a3.338 3.338 0 00-3.6 3.59v1.96h-1.694v3.03h1.694v8.57h3.564v-8.57h2.4z" transform="translate(-493.031 -5002)"/></symbol><symbol id="twitter" viewBox="0 0 17.469 14.25"><path d="M573.514 5005.92a7.434 7.434 0 01-2.06.56 3.605 3.605 0 001.578-1.98 7.22 7.22 0 01-2.279.87 3.588 3.588 0 00-6.211 2.45 3.68 3.68 0 00.092.82 10.2 10.2 0 01-7.4-3.75 3.591 3.591 0 001.11 4.79 3.584 3.584 0 01-1.626-.45v.05a3.592 3.592 0 002.881 3.52 3.7 3.7 0 01-.947.13 3.749 3.749 0 01-.675-.07 3.586 3.586 0 003.353 2.49 7.164 7.164 0 01-4.458 1.54 8.067 8.067 0 01-.857-.05 10.214 10.214 0 0015.718-8.6c0-.16 0-.31-.011-.46a7.347 7.347 0 001.792-1.86z" transform="translate(-556.031 -5004.22)"/></symbol><symbol id="google" viewBox="0 0 17.688 15.88"><path d="M640.479 5009.5h-2.669v-2.66a.366.366 0 00-.369-.37h-.759a.366.366 0 00-.37.37v2.66h-2.668a.376.376 0 00-.37.38v.76a.365.365 0 00.37.36h2.668v2.67a.366.366 0 00.37.37h.759a.366.366 0 00.369-.37V5011h2.669a.364.364 0 00.369-.36v-.76a.374.374 0 00-.369-.38zm-8.967 2.34a3.124 3.124 0 01-1.08-1.15c0-.33.028-.49.759-1.06a3.489 3.489 0 001.467-2.74 3.645 3.645 0 00-.77-2.34h.377a.4.4 0 00.215-.07l1.051-.76a.371.371 0 00-.217-.67h-4.693a4.669 4.669 0 00-1.548.27 4.036 4.036 0 00-2.907 3.54 3.772 3.772 0 003.838 3.78 1.95 1.95 0 00-.065.5 1.86 1.86 0 00.253.93h-.06a5.125 5.125 0 00-4.7 2.56 2.738 2.738 0 00-.281 1.19 2.248 2.248 0 00.293 1.11 4.2 4.2 0 002.727 1.76 8.833 8.833 0 002.154.26 7.006 7.006 0 001.919-.26 3.825 3.825 0 003.063-3.49 3.645 3.645 0 00-1.795-3.36zm-5.928 3.48c0-1.11 1.4-2.08 3-2.08l.042.01a3.386 3.386 0 011.009.15c.11.08.215.15.317.22a2.759 2.759 0 011.364 1.37 1.659 1.659 0 01.049.4c0 1.37-1.026 2.07-3.048 2.07-1.534 0-2.733-.94-2.733-2.14zm1.453-10.43a1.215 1.215 0 01.945-.44h.041a2.787 2.787 0 012.213 2.58 2.524 2.524 0 01-.462 1.96 1.242 1.242 0 01-.955.43h-.019c-1.017-.02-2.031-1.23-2.213-2.62a2.416 2.416 0 01.45-1.91z" transform="translate(-623.156 -5003.06)"/></symbol><symbol id="phone" viewBox="0 0 28.376 29.38"><path d="M555.24 7141.23a2.24 2.24 0 112.238-2.24 2.24 2.24 0 01-2.238 2.24m0-3.45a1.215 1.215 0 101.211 1.21 1.214 1.214 0 00-1.211-1.21m5.259 3.45a2.24 2.24 0 112.243-2.24 2.241 2.241 0 01-2.243 2.24m0-3.45a1.215 1.215 0 101.213 1.21 1.212 1.212 0 00-1.213-1.21m5.258 3.45a2.24 2.24 0 112.243-2.24 2.241 2.241 0 01-2.243 2.24m0-3.45a1.215 1.215 0 101.214 1.21 1.211 1.211 0 00-1.214-1.21m4.052 17.92l-4.839-4.84a15.421 15.421 0 01-4.471.66c-7.818 0-14.177-5.66-14.177-12.61s6.359-12.61 14.177-12.61 14.179 5.66 14.179 12.61a12.033 12.033 0 01-4.869 9.5v7.29zm-4.552-6.01l3.523 3.53v-5.32l.208-.16a11.053 11.053 0 004.663-8.83c0-6.39-5.9-11.58-13.152-11.58s-13.15 5.19-13.15 11.58 5.9 11.58 13.15 11.58a14.716 14.716 0 004.459-.7z" transform="translate(-546.312 -7126.31)"/></symbol><symbol id="mail" viewBox="0 0 26 26.18"><path d="M972.51 7136.94a.478.478 0 00-.16-.33.191.191 0 00-.022-.03l-2.955-2.3v-6.9a.468.468 0 00-.467-.47h-18.812a.468.468 0 00-.467.47v6.9l-2.957 2.3a.174.174 0 00-.02.03.466.466 0 00-.16.33v15.68a.406.406 0 00.024.08c0 .03-.006.05 0 .07a.123.123 0 00.031.04.473.473 0 00.092.13.794.794 0 00.085.07c.01.01.017.02.028.03a.414.414 0 00.186.04c.009 0 .012.01.021.01h25.086a.5.5 0 00.205-.05.2.2 0 00.033-.03.3.3 0 00.076-.07.517.517 0 00.1-.13.09.09 0 00.029-.04c.006-.02 0-.04 0-.06 0-.04.024-.06.024-.09v-15.68zm-25.088.96l2.385 1.84 6.5 5.04-8.886 6.89v-13.77zm20.334 10.81l-5.061-3.93 8.5-6.59.381-.29v13.77zm3.527-11.77l-1.91 1.48v-2.95zm-20.723-9.1h17.879v11.15l-8.937 6.93-8.942-6.93v-11.15zm-.933 7.63v2.95l-.559-.43-1.35-1.05zm-1.307 16.68l8.748-6.78 2.148 1.66a.443.443 0 00.573 0l2.144-1.66 8.745 6.78H948.32z" transform="translate(-946.5 -7126.91)"/></symbol><symbol id="address" viewBox="0 0 24.59 28.65"><path d="M1369.92 7144.45l-1.91 1.91-1.57-1.57a9.764 9.764 0 00-7.25-16.31 9.678 9.678 0 00-6.52 2.54l-1.57-1.57 1.91-1.91a.507.507 0 000-.72.5.5 0 00-.73 0l-2.27 2.27a12.976 12.976 0 008.79 22.15c-.19.97-.85 3.07-3.11 3.07h-.64a.512.512 0 00-.51.51.521.521 0 00.51.52h8.28a.521.521 0 00.51-.52.512.512 0 00-.51-.51h-4.98a5.572 5.572 0 001.49-3.09 12.836 12.836 0 008.53-3.77l2.28-2.27a.516.516 0 00-.73-.73m-4.54-12.37a8.752 8.752 0 11-6.19-2.57 8.752 8.752 0 016.19 2.57m-18.15 6.19a11.878 11.878 0 013.18-8.06l1.53 1.54a9.748 9.748 0 0013.77 13.77l1.53 1.53a11.927 11.927 0 01-20.01-8.78" transform="translate(-1346.22 -7126.69)"/></symbol><symbol id="dribble" viewBox="0 0 17.562 17.56"><path d="M958.115 7479.16a8.8 8.8 0 00-2.393-4.44 8.8 8.8 0 00-2.791-1.88 7.978 7.978 0 00-1.65-.51 8.778 8.778 0 00-3.537 0 8.007 8.007 0 00-1.649.51 8.872 8.872 0 00-2.793 1.88 8.978 8.978 0 00-1.07 1.3 8.748 8.748 0 00-1.322 3.14 8.93 8.93 0 00-.178 1.77 8.831 8.831 0 00.178 1.76 8.39 8.39 0 00.513 1.65 8.525 8.525 0 00.809 1.5 9.552 9.552 0 001.07 1.3 9.872 9.872 0 001.3 1.07 9.266 9.266 0 001.492.81 9.452 9.452 0 001.649.51 8.778 8.778 0 003.537 0 9.41 9.41 0 001.65-.51 9.233 9.233 0 001.493-.81 9.844 9.844 0 001.3-1.07 9.2 9.2 0 001.071-1.3 8.464 8.464 0 00.81-1.5 8.321 8.321 0 00.512-1.65 8.685 8.685 0 00.178-1.76 8.783 8.783 0 00-.179-1.77zm-1.106 1.69a17.361 17.361 0 00-5.222-.24l-.162-.39c-.157-.37-.325-.73-.5-1.09a9.655 9.655 0 004.177-2.97 7.477 7.477 0 011.707 4.69zm-2.543-5.55a8.173 8.173 0 01-3.918 2.71 38.373 38.373 0 00-2.8-4.37 7.363 7.363 0 011.767-.21 7.487 7.487 0 014.951 1.87zm-6.75-1.65zm-1.4.5a44.335 44.335 0 012.783 4.32 28.116 28.116 0 01-6.924.91 7.494 7.494 0 014.139-5.23zm-4.3 6.78c0-.08 0-.16.006-.24a27.451 27.451 0 007.7-1.07c.215.42.422.85.61 1.28a1.68 1.68 0 00-.3.09 11.821 11.821 0 00-6.1 4.94v.01a7.489 7.489 0 01-1.919-5.01zm7.5 7.5a7.49 7.49 0 01-4.777-1.72c.1.08.168.13.168.13a10.156 10.156 0 015.885-4.69c.017 0 .033-.01.049-.01a30.991 30.991 0 011.6 5.69 7.5 7.5 0 01-2.928.6zm4.19-1.28a32.272 32.272 0 00-1.459-5.36 10.823 10.823 0 014.674.33 7.508 7.508 0 01-3.221 5.03z" transform="translate(-940.719 -7472.16)"/></symbol><symbol id="arrow" viewBox="0 0 15.594 9.09" width="15.594" height="9.09"><path d="M966.246 7581.38v-.01l-6.469-6.49a1.216 1.216 0 00-.562-.33 1.239 1.239 0 00-.337-.07c-.013 0-.025-.01-.039-.01h-.031c-.014 0-.024.01-.038.01a1.263 1.263 0 00-.337.07 1.194 1.194 0 00-.56.33l-6.469 6.49v.01a1.257 1.257 0 00-.368.89 1.294 1.294 0 001.291 1.3 1.246 1.246 0 00.726-.26l.033.03.143-.15c.006 0 .012-.01.018-.01l5.574-5.59 5.574 5.59c.007 0 .013.01.02.01l.14.15.035-.03a1.244 1.244 0 00.727.26 1.294 1.294 0 001.291-1.3 1.262 1.262 0 00-.362-.89z" transform="translate(-951.031 -7574.47)"/></symbol></svg>