<svg xmlns="http://www.w3.org/2000/svg">
    <symbol id="play" viewBox="0 0 19.782 22.22" width="19.782" height="22.22">
        <path d="M970,2075.62l-15.444-8.92a2.023,2.023,0,0,0-3.168,1.83v17.84a1.972,1.972,0,0,0,1.908,2.19,2.518,2.518,0,0,0,1.256-.36l15.452-8.92a2,2,0,0,0,0-3.66h0Zm-0.915,2.07-15.444,8.92a0.765,0.765,0,0,1-.345.12l0,0.01a0.6,0.6,0,0,1-.079-0.37v-17.84a0.474,0.474,0,0,1,.086-0.36,0.8,0.8,0,0,1,.346.12l15.439,8.92a0.8,0.8,0,0,1,.288.23,0.661,0.661,0,0,1-.288.25h0Z" transform="translate(-951.406 -2066.34)"/>
    </symbol>

    <symbol id="facebook" viewBox="0 0 7.969 17.19" width="7.969" height="17.19">
        <path d="M500.992,5007.57h-2.716v-1.78a0.729,0.729,0,0,1,.756-0.83h1.916v-2.93l-2.64-.01a3.338,3.338,0,0,0-3.6,3.59v1.96h-1.694v3.03h1.694v8.57h3.564v-8.57h2.4Z" transform="translate(-493.031 -5002)"/>
    </symbol>

    <symbol id="twitter" viewBox="0 0 17.469 14.25" width="17.469" height="14.25">
        <path d="M573.514,5005.92a7.434,7.434,0,0,1-2.06.56,3.605,3.605,0,0,0,1.578-1.98,7.22,7.22,0,0,1-2.279.87,3.588,3.588,0,0,0-6.211,2.45,3.68,3.68,0,0,0,.092.82,10.2,10.2,0,0,1-7.4-3.75,3.591,3.591,0,0,0,1.11,4.79,3.584,3.584,0,0,1-1.626-.45v0.05a3.592,3.592,0,0,0,2.881,3.52,3.7,3.7,0,0,1-.947.13,3.749,3.749,0,0,1-.675-0.07,3.586,3.586,0,0,0,3.353,2.49,7.164,7.164,0,0,1-4.458,1.54,8.067,8.067,0,0,1-.857-0.05,10.214,10.214,0,0,0,15.718-8.6c0-.16,0-0.31-0.011-0.46A7.347,7.347,0,0,0,573.514,5005.92Z" transform="translate(-556.031 -5004.22)"/>
    </symbol>

    <symbol id="google" viewBox="0 0 17.688 15.88" width="17.688" height="15.88">
        <path d="M640.479,5009.5H637.81v-2.66a0.366,0.366,0,0,0-.369-0.37h-0.759a0.366,0.366,0,0,0-.37.37v2.66h-2.668a0.376,0.376,0,0,0-.37.38v0.76a0.365,0.365,0,0,0,.37.36h2.668v2.67a0.366,0.366,0,0,0,.37.37h0.759a0.366,0.366,0,0,0,.369-0.37V5011h2.669a0.364,0.364,0,0,0,.369-0.36v-0.76A0.374,0.374,0,0,0,640.479,5009.5Zm-8.967,2.34a3.124,3.124,0,0,1-1.08-1.15c0-.33.028-0.49,0.759-1.06a3.489,3.489,0,0,0,1.467-2.74,3.645,3.645,0,0,0-.77-2.34h0.377a0.4,0.4,0,0,0,.215-0.07l1.051-.76a0.371,0.371,0,0,0-.217-0.67h-4.693a4.669,4.669,0,0,0-1.548.27,4.036,4.036,0,0,0-2.907,3.54,3.772,3.772,0,0,0,3.838,3.78,1.95,1.95,0,0,0-.065.5,1.86,1.86,0,0,0,.253.93h-0.06a5.125,5.125,0,0,0-4.7,2.56,2.738,2.738,0,0,0-.281,1.19,2.248,2.248,0,0,0,.293,1.11,4.2,4.2,0,0,0,2.727,1.76,8.833,8.833,0,0,0,2.154.26,7.006,7.006,0,0,0,1.919-.26,3.825,3.825,0,0,0,3.063-3.49A3.645,3.645,0,0,0,631.512,5011.84Zm-5.928,3.48c0-1.11,1.4-2.08,3-2.08l0.042,0.01a3.386,3.386,0,0,1,1.009.15c0.11,0.08.215,0.15,0.317,0.22a2.759,2.759,0,0,1,1.364,1.37,1.659,1.659,0,0,1,.049.4c0,1.37-1.026,2.07-3.048,2.07C626.783,5017.46,625.584,5016.52,625.584,5015.32Zm1.453-10.43a1.215,1.215,0,0,1,.945-0.44h0.041a2.787,2.787,0,0,1,2.213,2.58,2.524,2.524,0,0,1-.462,1.96,1.242,1.242,0,0,1-.955.43H628.8c-1.017-.02-2.031-1.23-2.213-2.62A2.416,2.416,0,0,1,627.037,5004.89Z" transform="translate(-623.156 -5003.06)"/>
    </symbol>
</svg>