<svg xmlns="http://www.w3.org/2000/svg">
    <symbol id="play" viewBox="0 0 19.782 22.22" width="19.782" height="22.22">
        <path d="M970,2075.62l-15.444-8.92a2.023,2.023,0,0,0-3.168,1.83v17.84a1.972,1.972,0,0,0,1.908,2.19,2.518,2.518,0,0,0,1.256-.36l15.452-8.92a2,2,0,0,0,0-3.66h0Zm-0.915,2.07-15.444,8.92a0.765,0.765,0,0,1-.345.12l0,0.01a0.6,0.6,0,0,1-.079-0.37v-17.84a0.474,0.474,0,0,1,.086-0.36,0.8,0.8,0,0,1,.346.12l15.439,8.92a0.8,0.8,0,0,1,.288.23,0.661,0.661,0,0,1-.288.25h0Z" transform="translate(-951.406 -2066.34)"/>
    </symbol>
</svg>