<svg xmlns="http://www.w3.org/2000/svg">
    <symbol id="play" viewBox="0 0 19.782 22.22" width="19.782" height="22.22">
        <path d="M970,2075.62l-15.444-8.92a2.023,2.023,0,0,0-3.168,1.83v17.84a1.972,1.972,0,0,0,1.908,2.19,2.518,2.518,0,0,0,1.256-.36l15.452-8.92a2,2,0,0,0,0-3.66h0Zm-0.915,2.07-15.444,8.92a0.765,0.765,0,0,1-.345.12l0,0.01a0.6,0.6,0,0,1-.079-0.37v-17.84a0.474,0.474,0,0,1,.086-0.36,0.8,0.8,0,0,1,.346.12l15.439,8.92a0.8,0.8,0,0,1,.288.23,0.661,0.661,0,0,1-.288.25h0Z" transform="translate(-951.406 -2066.34)"/>
    </symbol>

    <symbol id="facebook" viewBox="0 0 7.969 17.19" width="7.969" height="17.19">
        <path d="M500.992,5007.57h-2.716v-1.78a0.729,0.729,0,0,1,.756-0.83h1.916v-2.93l-2.64-.01a3.338,3.338,0,0,0-3.6,3.59v1.96h-1.694v3.03h1.694v8.57h3.564v-8.57h2.4Z" transform="translate(-493.031 -5002)"/>
    </symbol>

    <symbol id="twitter" viewBox="0 0 17.469 14.25" width="17.469" height="14.25">
        <path d="M573.514,5005.92a7.434,7.434,0,0,1-2.06.56,3.605,3.605,0,0,0,1.578-1.98,7.22,7.22,0,0,1-2.279.87,3.588,3.588,0,0,0-6.211,2.45,3.68,3.68,0,0,0,.092.82,10.2,10.2,0,0,1-7.4-3.75,3.591,3.591,0,0,0,1.11,4.79,3.584,3.584,0,0,1-1.626-.45v0.05a3.592,3.592,0,0,0,2.881,3.52,3.7,3.7,0,0,1-.947.13,3.749,3.749,0,0,1-.675-0.07,3.586,3.586,0,0,0,3.353,2.49,7.164,7.164,0,0,1-4.458,1.54,8.067,8.067,0,0,1-.857-0.05,10.214,10.214,0,0,0,15.718-8.6c0-.16,0-0.31-0.011-0.46A7.347,7.347,0,0,0,573.514,5005.92Z" transform="translate(-556.031 -5004.22)"/>
    </symbol>

    <symbol id="google" viewBox="0 0 17.688 15.88" width="17.688" height="15.88">
        <path d="M640.479,5009.5H637.81v-2.66a0.366,0.366,0,0,0-.369-0.37h-0.759a0.366,0.366,0,0,0-.37.37v2.66h-2.668a0.376,0.376,0,0,0-.37.38v0.76a0.365,0.365,0,0,0,.37.36h2.668v2.67a0.366,0.366,0,0,0,.37.37h0.759a0.366,0.366,0,0,0,.369-0.37V5011h2.669a0.364,0.364,0,0,0,.369-0.36v-0.76A0.374,0.374,0,0,0,640.479,5009.5Zm-8.967,2.34a3.124,3.124,0,0,1-1.08-1.15c0-.33.028-0.49,0.759-1.06a3.489,3.489,0,0,0,1.467-2.74,3.645,3.645,0,0,0-.77-2.34h0.377a0.4,0.4,0,0,0,.215-0.07l1.051-.76a0.371,0.371,0,0,0-.217-0.67h-4.693a4.669,4.669,0,0,0-1.548.27,4.036,4.036,0,0,0-2.907,3.54,3.772,3.772,0,0,0,3.838,3.78,1.95,1.95,0,0,0-.065.5,1.86,1.86,0,0,0,.253.93h-0.06a5.125,5.125,0,0,0-4.7,2.56,2.738,2.738,0,0,0-.281,1.19,2.248,2.248,0,0,0,.293,1.11,4.2,4.2,0,0,0,2.727,1.76,8.833,8.833,0,0,0,2.154.26,7.006,7.006,0,0,0,1.919-.26,3.825,3.825,0,0,0,3.063-3.49A3.645,3.645,0,0,0,631.512,5011.84Zm-5.928,3.48c0-1.11,1.4-2.08,3-2.08l0.042,0.01a3.386,3.386,0,0,1,1.009.15c0.11,0.08.215,0.15,0.317,0.22a2.759,2.759,0,0,1,1.364,1.37,1.659,1.659,0,0,1,.049.4c0,1.37-1.026,2.07-3.048,2.07C626.783,5017.46,625.584,5016.52,625.584,5015.32Zm1.453-10.43a1.215,1.215,0,0,1,.945-0.44h0.041a2.787,2.787,0,0,1,2.213,2.58,2.524,2.524,0,0,1-.462,1.96,1.242,1.242,0,0,1-.955.43H628.8c-1.017-.02-2.031-1.23-2.213-2.62A2.416,2.416,0,0,1,627.037,5004.89Z" transform="translate(-623.156 -5003.06)"/>
    </symbol>

    <symbol id="phone" viewBox="0 0 28.376 29.38" width="28.376" height="29.38">
        <path d="M555.24,7141.23a2.24,2.24,0,1,1,2.238-2.24,2.24,2.24,0,0,1-2.238,2.24m0-3.45a1.215,1.215,0,1,0,1.211,1.21,1.214,1.214,0,0,0-1.211-1.21m5.259,3.45a2.24,2.24,0,1,1,2.243-2.24,2.241,2.241,0,0,1-2.243,2.24m0-3.45a1.215,1.215,0,1,0,1.213,1.21,1.212,1.212,0,0,0-1.213-1.21m5.258,3.45a2.24,2.24,0,1,1,2.243-2.24,2.241,2.241,0,0,1-2.243,2.24m0-3.45a1.215,1.215,0,1,0,1.214,1.21,1.211,1.211,0,0,0-1.214-1.21m4.052,17.92-4.839-4.84a15.421,15.421,0,0,1-4.471.66c-7.818,0-14.177-5.66-14.177-12.61s6.359-12.61,14.177-12.61,14.179,5.66,14.179,12.61a12.033,12.033,0,0,1-4.869,9.5v7.29Zm-4.552-6.01,3.523,3.53v-5.32l0.208-.16a11.053,11.053,0,0,0,4.663-8.83c0-6.39-5.9-11.58-13.152-11.58s-13.15,5.19-13.15,11.58,5.9,11.58,13.15,11.58a14.716,14.716,0,0,0,4.459-.7Z" transform="translate(-546.312 -7126.31)"/>
    </symbol>

    <symbol id="mail" viewBox="0 0 26 26.18" width="26" height="26.18">
        <path d="M972.51,7136.94a0.478,0.478,0,0,0-.16-0.33,0.191,0.191,0,0,0-.022-0.03l-2.955-2.3v-6.9a0.468,0.468,0,0,0-.467-0.47H950.094a0.468,0.468,0,0,0-.467.47v6.9l-2.957,2.3a0.174,0.174,0,0,0-.02.03,0.466,0.466,0,0,0-.16.33v15.68a0.406,0.406,0,0,0,.024.08c0,0.03-.006.05,0,0.07a0.123,0.123,0,0,0,.031.04,0.473,0.473,0,0,0,.092.13,0.794,0.794,0,0,0,.085.07c0.01,0.01.017,0.02,0.028,0.03a0.414,0.414,0,0,0,.186.04c0.009,0,.012.01,0.021,0.01h25.086a0.5,0.5,0,0,0,.205-0.05,0.2,0.2,0,0,0,.033-0.03,0.3,0.3,0,0,0,.076-0.07,0.517,0.517,0,0,0,.1-0.13,0.09,0.09,0,0,0,.029-0.04c0.006-.02,0-0.04,0-0.06,0-.04.024-0.06,0.024-0.09v-15.68Zm-25.088.96,2.385,1.84,6.5,5.04-8.886,6.89V7137.9Zm20.334,10.81-5.061-3.93,8.5-6.59,0.381-.29v13.77Zm3.527-11.77-1.91,1.48v-2.95Zm-20.723-9.1h17.879v11.15l-8.937,6.93-8.942-6.93v-11.15Zm-0.933,7.63v2.95l-0.559-.43-1.35-1.05Zm-1.307,16.68,8.748-6.78,2.148,1.66a0.443,0.443,0,0,0,.573,0l2.144-1.66,8.745,6.78H948.32Z" transform="translate(-946.5 -7126.91)"/>
    </symbol>

    <symbol id="address" viewBox="0 0 24.59 28.65" width="24.59" height="28.65">
        <path d="M1369.92,7144.45l-1.91,1.91-1.57-1.57a9.764,9.764,0,0,0-7.25-16.31,9.678,9.678,0,0,0-6.52,2.54l-1.57-1.57,1.91-1.91a0.507,0.507,0,0,0,0-.72,0.5,0.5,0,0,0-.73,0l-2.27,2.27a12.976,12.976,0,0,0,8.79,22.15c-0.19.97-.85,3.07-3.11,3.07h-0.64a0.512,0.512,0,0,0-.51.51,0.521,0.521,0,0,0,.51.52h8.28a0.521,0.521,0,0,0,.51-0.52,0.512,0.512,0,0,0-.51-0.51h-4.98a5.572,5.572,0,0,0,1.49-3.09,12.836,12.836,0,0,0,8.53-3.77l2.28-2.27a0.516,0.516,0,0,0-.73-0.73m-4.54-12.37a8.752,8.752,0,1,1-6.19-2.57,8.752,8.752,0,0,1,6.19,2.57m-18.15,6.19a11.878,11.878,0,0,1,3.18-8.06l1.53,1.54a9.748,9.748,0,0,0,13.77,13.77l1.53,1.53a11.927,11.927,0,0,1-20.01-8.78" transform="translate(-1346.22 -7126.69)"/>
    </symbol>

    <symbol id="dribble" viewBox="0 0 17.562 17.56" width="17.562" height="17.56">
        <path d="M958.115,7479.16a8.8,8.8,0,0,0-2.393-4.44,8.8,8.8,0,0,0-2.791-1.88,7.978,7.978,0,0,0-1.65-.51,8.778,8.778,0,0,0-3.537,0,8.007,8.007,0,0,0-1.649.51,8.872,8.872,0,0,0-2.793,1.88,8.978,8.978,0,0,0-1.07,1.3,8.748,8.748,0,0,0-1.322,3.14,8.93,8.93,0,0,0-.178,1.77,8.831,8.831,0,0,0,.178,1.76,8.39,8.39,0,0,0,.513,1.65,8.525,8.525,0,0,0,.809,1.5,9.552,9.552,0,0,0,1.07,1.3,9.872,9.872,0,0,0,1.3,1.07,9.266,9.266,0,0,0,1.492.81,9.452,9.452,0,0,0,1.649.51,8.778,8.778,0,0,0,3.537,0,9.41,9.41,0,0,0,1.65-.51,9.233,9.233,0,0,0,1.493-.81,9.844,9.844,0,0,0,1.3-1.07,9.2,9.2,0,0,0,1.071-1.3,8.464,8.464,0,0,0,.81-1.5,8.321,8.321,0,0,0,.512-1.65,8.685,8.685,0,0,0,.178-1.76A8.783,8.783,0,0,0,958.115,7479.16Zm-1.106,1.69a17.361,17.361,0,0,0-5.222-.24c-0.053-.13-0.108-0.26-0.162-0.39-0.157-.37-0.325-0.73-0.5-1.09a9.655,9.655,0,0,0,4.177-2.97A7.477,7.477,0,0,1,957.009,7480.85Zm-2.543-5.55a8.173,8.173,0,0,1-3.918,2.71,38.373,38.373,0,0,0-2.8-4.37,7.363,7.363,0,0,1,1.767-.21A7.487,7.487,0,0,1,954.466,7475.3Zm-6.75-1.65h0Zm-1.4.5a44.335,44.335,0,0,1,2.783,4.32,28.116,28.116,0,0,1-6.924.91A7.494,7.494,0,0,1,946.314,7474.15Zm-4.3,6.78c0-.08,0-0.16.006-0.24a27.451,27.451,0,0,0,7.7-1.07c0.215,0.42.422,0.85,0.61,1.28a1.68,1.68,0,0,0-.3.09,11.821,11.821,0,0,0-6.1,4.94l0,0.01A7.489,7.489,0,0,1,942.013,7480.93Zm7.5,7.5a7.49,7.49,0,0,1-4.777-1.72c0.1,0.08.168,0.13,0.168,0.13a10.156,10.156,0,0,1,5.885-4.69c0.017,0,.033-0.01.049-0.01a30.991,30.991,0,0,1,1.6,5.69A7.5,7.5,0,0,1,949.513,7488.43Zm4.19-1.28a32.272,32.272,0,0,0-1.459-5.36,10.823,10.823,0,0,1,4.674.33A7.508,7.508,0,0,1,953.7,7487.15Z" transform="translate(-940.719 -7472.16)"/>
    </symbol>

    <symbol id="arrow" viewBox="0 0 15.594 9.09" width="15.594" height="9.09">
        <path d="M966.246,7581.38l0-.01-6.469-6.49h0a1.216,1.216,0,0,0-.562-0.33,1.239,1.239,0,0,0-.337-0.07c-0.013,0-.025-0.01-0.039-0.01h-0.031c-0.014,0-.024.01-0.038,0.01a1.263,1.263,0,0,0-.337.07,1.194,1.194,0,0,0-.56.33h0l-6.469,6.49,0,0.01a1.257,1.257,0,0,0-.368.89,1.294,1.294,0,0,0,1.291,1.3,1.246,1.246,0,0,0,.726-0.26l0.033,0.03,0.143-.15c0.006,0,.012-0.01.018-0.01l5.574-5.59,5.574,5.59c0.007,0,.013.01,0.02,0.01l0.14,0.15,0.035-.03a1.244,1.244,0,0,0,.727.26,1.294,1.294,0,0,0,1.291-1.3A1.262,1.262,0,0,0,966.246,7581.38Z" transform="translate(-951.031 -7574.47)"/>
    </symbol>
</svg>